<?xml version="1.0" encoding="UTF-8" standalone="no"?>
<!-- Created with Inkscape (http://www.inkscape.org/) -->

<svg
   version="1.1"
   id="svg179"
   width="450"
   height="300"
   viewBox="0 0 450 300"
   sodipodi:docname="wrestling.svg"
   inkscape:version="1.2.2 (732a01da63, 2022-12-09)"
   xmlns:inkscape="http://www.inkscape.org/namespaces/inkscape"
   xmlns:sodipodi="http://sodipodi.sourceforge.net/DTD/sodipodi-0.dtd"
   xmlns="http://www.w3.org/2000/svg"
   xmlns:svg="http://www.w3.org/2000/svg">
  <defs
     id="defs183" />
  <sodipodi:namedview
     id="namedview181"
     pagecolor="#ffffff"
     bordercolor="#111111"
     borderopacity="1"
     inkscape:showpageshadow="0"
     inkscape:pageopacity="0"
     inkscape:pagecheckerboard="1"
     inkscape:deskcolor="#d1d1d1"
     showgrid="false"
     inkscape:zoom="2.7733333"
     inkscape:cx="219.23077"
     inkscape:cy="150"
     inkscape:window-width="1920"
     inkscape:window-height="1009"
     inkscape:window-x="-8"
     inkscape:window-y="-8"
     inkscape:window-maximized="1"
     inkscape:current-layer="g185" />
  <g
     inkscape:groupmode="layer"
     inkscape:label="Image"
     id="g185">
    <path
       style="fill:#ffffff;fill-opacity:1"
       d="m 408.5,298.13944 c -1.65,-1.0192 -3.72378,-2.70501 -4.6084,-3.74626 C 402.18227,292.38118 400,286.68119 400,284.22846 v -1.4731 l 9.12746,0.43639 9.12746,0.43639 1.28092,1.75176 1.28091,1.75176 3.84163,-0.31583 L 428.5,286.5 l 0.2999,-5.75 c 0.16495,-3.1625 0.0724,-5.75 -0.20559,-5.75 -0.27802,0 -2.21298,1.16625 -4.2999,2.59166 l -3.79441,2.59167 -4.72542,-0.44251 -4.72541,-0.44251 -3.90142,-2.58184 -3.90142,-2.58183 -2.32953,-3.76927 -2.32954,-3.76926 -0.0436,-15.55602 -0.0436,-15.55602 2.50619,-4.88874 2.5062,-4.88874 2.75458,-2.05659 2.75457,-2.05659 6.54788,-0.41693 6.54788,-0.41694 3.88271,3.12023 C 430.68766,227.64687 431,227.68561 431,224.5 V 222 h 9.5 9.5 v 32.84996 32.84996 l -3.03024,4.18313 -3.03025,4.18313 -3.21975,1.96317 -3.21976,1.96317 h -13 -13 z m 20,-48.03045 v -12.39102 l -1.71397,-1.08114 -1.71396,-1.08114 -2.78604,2.08701 -2.78603,2.08701 v 10.6734 10.6734 l 1.5,0.97227 1.5,0.97226 3,-0.26052 3,-0.26052 z m -278.14181,31.93708 c -1.72799,-0.41207 -4.77512,-1.75866 -6.7714,-2.99243 l -3.62961,-2.24322 -2.72859,-3.57359 -2.72859,-3.57359 -0.32087,-15.98118 -0.32087,-15.98118 0.59625,-2.37565 0.59625,-2.37565 3.65641,-4.04721 3.6564,-4.0472 3.77838,-1.92759 C 148.22005,221.86741 150.51324,221 151.23792,221 h 1.3176 l 1.75208,2.04628 1.75208,2.04628 6.22016,-0.58186 c 3.42109,-0.32002 7.84253,-0.78575 9.82542,-1.03495 l 3.60527,-0.4531 1.59802,1.7658 c 0.87891,0.97119 2.77265,4.33151 4.20829,7.46738 l 2.61027,5.70157 0.58447,9.0213 0.58446,9.0213 h -15.69768 -15.69767 l 0.68219,6.25 c 0.3752,3.4375 0.73597,6.32592 0.8017,6.41872 0.0657,0.0928 1.3171,0.46929 2.78081,0.83665 l 2.66129,0.66795 2.08666,-2.08666 L 165,266 v -3 -3 h 9.5879 9.5879 l -0.69978,4.25 c -0.98195,5.96367 -2.74739,9.80563 -5.97488,13.0025 l -2.77886,2.75249 -5.04264,1.49751 -5.04264,1.4975 -5.5685,-0.10236 c -3.06268,-0.0563 -6.98231,-0.43951 -8.71031,-0.85157 z m 13.04527,-38.88987 0.5215,-0.84379 -0.5889,-3.62894 -0.5889,-3.62894 -1.87358,-0.59465 -1.87358,-0.59466 -1.96526,0.62375 -1.96526,0.62375 -0.63386,3.37876 -0.63386,3.37875 0.65814,1.06488 L 155.11803,244 H 159 h 3.88197 z m 39.26401,38.47144 -4.83253,-1.36037 -2.60568,-1.94543 c -1.43313,-1.06998 -3.40847,-3.04261 -4.38966,-4.38363 L 189.05563,271.5 188.40001,267.25 187.74438,263 h 9.5194 9.5194 l 0.62022,2.47114 0.62021,2.47113 2.08134,1.1139 2.08133,1.11389 2.29656,-0.5764 2.29656,-0.5764 0.63857,-1.66409 0.63857,-1.66408 -2.12041,-2.25708 -2.12042,-2.25708 -6.15785,-2.2515 c -8.59325,-3.14194 -13.23956,-5.55807 -15.63691,-8.13131 l -2.05535,-2.20617 -1.06952,-3.97187 -1.06951,-3.97188 0.65431,-4.36329 0.65432,-4.3633 3.17382,-3.61479 3.17383,-3.61478 4.00857,-1.82106 4.00858,-1.82106 9.53811,-0.022 9.53811,-0.022 4.40335,2.25 4.40334,2.25 1.88178,2.58658 1.88178,2.58657 0.55844,4.16343 0.55843,4.16342 h -8.767 -8.767 l -2.31692,-2.5 -2.31692,-2.5 h -2.01257 -2.01256 l -1.0581,1.97708 -1.05811,1.97708 1.89979,1.89979 1.8998,1.8998 7.87312,2.62646 c 4.33022,1.44456 9.31118,3.50348 11.0688,4.57539 l 3.19566,1.94892 1.74184,2.65837 1.74183,2.65838 -0.0144,6.13936 -0.0143,6.13937 -1.65806,3.17116 -1.65806,3.17116 -2.95708,2.10563 c -1.6264,1.1581 -4.52993,2.76281 -6.4523,3.56602 l -3.49521,1.46039 -6.81279,0.50683 -6.8128,0.50683 -4.83253,-1.36038 z M 15.288641,281.19955 14.077283,280.42973 7.5623538,244.96486 C 3.9791429,225.45919 0.78813689,208.0203 0.47122925,206.21178 l -0.57619572,-3.28822 9.21624277,0.28822 9.2162427,0.28822 3.857753,16.5 c 2.121765,9.075 4.360197,18.8625 4.974293,21.75 0.614097,2.8875 1.392521,5.25 1.729832,5.25 h 0.613292 l 2.751264,-21.09971 c 1.513196,-11.60484 3.001648,-21.50484 3.307673,-22 L 36.118034,203 h 9.829692 9.829692 l 0.533775,3.25 c 0.293576,1.7875 1.797255,11.6739 3.341508,21.96978 l 2.807733,18.71979 0.710126,-0.71979 C 63.561129,245.8239 65.798809,235.9375 68.143182,224.25 L 72.405679,203 h 9.404149 9.40415 l -0.499289,1.30112 c -0.274608,0.71562 -4.241145,18.15312 -8.814525,38.75 L 73.584927,280.5 72.542463,281.23469 71.5,281.96937 l -9.75,0.0153 c -5.3625,0.008 -9.753595,-0.0972 -9.757989,-0.23469 -0.01415,-0.44278 -2.898325,-23.00699 -3.930489,-30.75 -0.549874,-4.125 -1.013665,-8.3775 -1.030646,-9.45 L 47,239.6 l -0.897647,0.95 -0.897646,0.95 -3.224143,19.5 -3.224143,19.5 -1.128211,0.73469 -1.12821,0.73468 h -10 -10 z M 92,252.03174 V 222 h 11 11 l 0.005,3.75 0.005,3.75 2.24504,-2.57275 c 1.23477,-1.41501 3.05648,-3.17749 4.04825,-3.91661 l 1.80322,-1.34386 4.44678,-0.67486 4.44678,-0.67485 v 9.21263 9.21264 l -5.25,0.68861 -5.25,0.68862 -2.22844,1.44914 -2.22844,1.44914 -0.27156,19.24108 L 115.5,281.5 103.75,281.78174 92,282.06347 Z m 162.4449,28.91711 -3.0551,-0.90503 -2.2569,-2.40236 -2.2569,-2.40236 -0.59308,-20.11955 L 245.68985,235 H 242.34492 239 v -6.5 -6.5 h 3.5 3.5 v -9.07451 -9.07451 l 11.75,0.27118 11.75,0.27117 2.16871,-6.44667 2.16872,-6.44666 2.08128,-0.31955 L 278,190.8609 v -7.84156 -7.84155 l 3,-2.52434 c 1.65,-1.38838 3,-2.82761 3,-3.1983 v -0.67396 l -3.75,0.45826 -3.75,0.45826 -11.29638,-0.8228 c -12.44536,-0.90649 -16.65237,-1.78582 -25.96414,-5.42692 L 232.97896,161 l -4.23948,0.004 -4.23948,0.004 -3.09528,1.88747 -3.09528,1.88747 -5.40472,6.3136 c -2.9726,3.47248 -6.88234,7.72974 -8.68832,9.46057 l -3.28359,3.14697 -4.21641,1.26791 c -2.31902,0.69735 -7.35694,1.55155 -11.19537,1.89822 l -6.97898,0.63031 -0.8347,4.99163 -0.83471,4.99162 -1.68396,1.86076 c -0.92618,1.02341 -2.92252,2.50123 -4.43632,3.28405 L 168,204.05188 v 3.31933 3.31933 l 1.75,1.5344 c 0.9625,0.84392 3.24434,2.29169 5.07076,3.21726 l 3.32077,1.68287 -1.24793,1.50366 c -0.68637,0.82701 -2.49586,2.14899 -4.02111,2.93773 L 170.09932,223 h -7.73675 -7.73675 l 2.68709,-2.80472 C 158.79081,218.65269 160,216.92456 160,216.35499 v -1.03557 l -3.38374,-2.40971 c -1.86106,-1.32534 -7.03606,-5.87692 -11.5,-10.11462 L 137,195.09019 v -1.89011 -1.8901 l -2.13338,-1.90499 c -1.17336,-1.04775 -3.88756,-4.26749 -6.03155,-7.15499 L 124.93691,177 h -1.60674 -1.60674 l -7.16095,5.48485 -7.16095,5.48484 -3.19478,0.63896 -3.19477,0.63895 -3.053147,-1.26465 -3.05315,-1.26466 -1.36711,-2.6437 c -0.751912,-1.45403 -1.658779,-4.20315 -2.015263,-6.10915 L 90.875159,174.5 91.68758,172.37073 92.5,170.24146 l 4.881558,-3.71455 4.881562,-3.71454 4.14951,0.62226 4.14951,0.62225 3.25169,-3.17912 3.25168,-3.17912 -1.9092,-2.09932 -1.9092,-2.09932 -0.65119,-6.05537 c -0.81172,-7.5481 -3.8148,-20.40378 -7.27743,-31.15344 l -2.64418,-8.20882 1.66235,-17.791183 L 105.99902,72.5 105.38288,70.25 104.76674,68 h 3.10223 3.10223 l 1.14722,4.556021 1.14722,4.55602 1.36718,-0.55602 c 0.75195,-0.305812 2.04665,-0.830882 2.87712,-1.166823 l 1.50994,-0.610803 -3.00915,6.360803 -3.00915,6.360802 -7.9e-4,2.125156 -7.9e-4,2.125157 3.43196,7.530939 3.43196,7.530938 1.07489,5.8146 1.07488,5.81461 4.77741,7.52184 4.77741,7.52185 4.96575,0.75653 4.96574,0.75654 3.83088,-0.60064 3.83087,-0.60064 3.41913,-3.00203 C 154.46139,129.14373 156,127.38943 156,126.89641 V 126 h -2 -2 l -0.0436,-0.75 c -0.0239,-0.4125 -0.42473,-2.72373 -0.89061,-5.13607 l -0.84705,-4.38606 7.3906,0.55895 c 4.06484,0.30742 7.39061,0.38038 7.39061,0.16212 0,-0.21825 -1.7536,-3.89605 -3.89688,-8.17288 -2.14329,-4.27683 -4.60827,-9.899756 -5.47773,-12.495384 l -1.58083,-4.719323 -1.18844,-8.926174 -1.18844,-8.926173 1.21607,-8.692867 1.21607,-8.692867 3.07569,-9.552547 3.07569,-9.552547 -0.50308,-6.267322 -0.50308,-6.267322 1.58634,-1.586338 1.58633,-1.586338 -1.2616,-4.755429 c -0.69388,-2.615486 -2.36935,-7.1864532 -3.72325,-10.1577051 -1.3539,-2.9712518 -2.25115,-5.61276913 -1.99388,-5.8700384 0.25727,-0.25726928 1.95125,-0.1843443 3.76439,0.16205551 L 162.5,1.0195588 l 5.62161,4.2402206 c 3.09189,2.3321213 7.48994,5.9360766 9.77344,8.0087886 l 4.15182,3.768568 -2.52344,3.713567 L 177,24.464269 v 2.732682 2.732681 l -1.88229,1.007369 -1.88228,1.007368 -0.64268,4.285723 -0.64269,4.285722 1.50458,7.992093 1.50458,7.992093 -1.41875,6 -1.41876,6 3.53063,6.5 c 1.94185,3.575 3.89308,6.881114 4.33607,7.346921 l 0.80543,0.846921 4.25808,-6.346921 4.25809,-6.346921 8.31216,-8.01756 8.31216,-8.01756 -0.57281,-2.190411 -0.5728,-2.19041 2.10564,-2.676888 L 209,44.730283 V 36.865141 29 h 1.04966 c 0.57731,0 2.26965,0.630884 3.76076,1.401964 l 2.7111,1.401964 2.17111,3.862963 2.1711,3.862962 1.23517,6.703505 1.23517,6.703504 -4.05451,5.781569 c -2.22997,3.179863 -5.38914,8.537559 -7.02036,11.905991 -1.63122,3.368433 -4.17986,7.716071 -5.66365,9.661419 l -2.6978,3.536997 -0.60351,21.014942 -0.60351,21.01494 40.40463,-0.17636 L 283.5,125.5 l 9,2.28819 9,2.28819 8.08458,3.91032 8.08457,3.91032 5.0434,4.53444 5.04339,4.53445 1.62203,3.41817 1.62203,3.41818 0.0309,13.84887 0.0309,13.84887 0.91236,7 0.91236,7 2.11555,4.77711 2.11555,4.7771 -0.59273,1.86752 -0.59273,1.86753 1.5414,1.54139 c 0.84776,0.84777 4.91304,3.45972 9.03394,5.80434 4.1209,2.34461 7.49255,4.56152 7.49255,4.92645 v 0.66352 l -8.25,0.62604 c -4.5375,0.34432 -12.4125,0.92077 -17.5,1.281 l -9.25,0.65496 v 0.95471 0.9547 l 6,-0.69637 6,-0.69637 V 253.40181 282 h -11 -11 v -30.09651 -30.09652 l 4.94966,0.34652 4.94965,0.34651 0.53669,-2 c 0.29518,-1.1 0.54115,-3.35 0.54661,-5 l 0.01,-3 -2.02249,-3.3173 -2.02249,-3.3173 2.25158,0.3173 2.25158,0.3173 0.34659,-1.74279 0.34658,-1.74279 -5.10878,-11.13061 c -2.80983,-6.12184 -5.63553,-13.10009 -6.27934,-15.50721 L 308.58519,172 h -0.76954 c -0.42325,0 -1.55682,1.2375 -2.51904,2.75 -0.96223,1.5125 -4.75141,6.8 -8.4204,11.75 l -6.67091,9 -0.7037,8.21574 -0.7037,8.21573 3.10105,3.76211 C 293.60453,217.76274 295,220.02816 295,220.72784 V 222 h 1 c 1.64,0 1.17985,-1.31037 -2.4744,-7.04634 L 290.05119,209.5 290.0256,207.28518 290,205.07037 291.93426,204.03518 293.86852,203 H 297.43426 301 v 39.53383 39.53383 L 290.25,281.78383 279.5,281.5 l -0.26857,-22.03967 -0.26857,-22.03966 0.78674,-6.96034 0.78673,-6.96033 -5.84084,-7.25 C 271.48303,212.2625 268.66236,209 268.42733,209 268.1923,209 268,211.925 268,215.5 v 6.5 h 4.5 4.5 v 7 7 h -4.5 -4.5 v 14.88337 14.88337 l 2.25,0.60297 c 1.2375,0.33164 3.28221,0.60913 4.54381,0.61664 l 2.29381,0.0136 -0.29381,7.25 -0.29381,7.25 -9.5,0.17694 -9.5,0.17694 -3.0551,-0.90503 z M 295,224 l 1.5,-0.96937 -7,0.13488 -7,0.13488 L 287,224 c 2.475,0.38479 4.95,0.76031 5.5,0.83449 0.55,0.0742 1.675,-0.30133 2.5,-0.83449 z m -139.56365,-48.48161 2.6264,-4.48161 2.0395,-1.0915 2.03951,-1.09151 3.07834,1.07311 c 1.69309,0.59022 3.20044,1.07312 3.34967,1.07312 0.14922,0 0.53207,-1.35 0.85077,-3 0.31871,-1.65 0.84021,-4.35 1.15892,-6 l 0.57945,-3 h -0.95772 c -0.52675,0 -4.18213,2.98531 -8.12308,6.63403 l -7.16537,6.63402 -1.45637,2.81632 C 152.04408,177.81543 151.57683,180 152.40498,180 c 0.22274,0 1.58686,-2.01672 3.03137,-4.48161 z M 339,253.51905 V 225.0381 l 2.25,-0.48247 C 343.54373,224.06378 357.42663,222 358.44155,222 358.7487,222 359,223.125 359,224.5 v 2.5 h 0.87756 c 0.48265,0 1.46238,-0.70467 2.17716,-1.56594 0.71479,-0.86126 2.54754,-2.21126 4.07279,-3 L 368.90068,221 l 6.29966,0.004 6.29966,0.004 3.31018,2.01815 3.31017,2.01816 1.43983,3.44599 1.43982,3.44598 v 25.03212 25.03212 H 380.5 370 v -19.85078 -19.85077 l -1.09783,-3.14923 -1.09782,-3.14922 h -2.36699 -2.36699 l -1.03519,1.93426 L 361,239.86904 v 21.06574 21.06574 H 350 339 V 253.51957 Z M 309,211 v -8 h 4 4 v 0.8 c 0,0.44 -0.50641,1.30641 -1.12535,1.92535 l -1.12534,1.12534 2.22447,4.59515 2.22447,4.59514 -0.56774,1.47951 L 318.06277,219 H 313.53138 309 Z"
       id="path297" />
  </g>
</svg>
