<?xml version="1.0" encoding="UTF-8" standalone="no"?>
<!-- Created with Inkscape (http://www.inkscape.org/) -->

<svg
   width="1920"
   height="1080"
   viewBox="0 0 507.99998 285.75"
   version="1.1"
   id="svg5"
   inkscape:version="1.2.2 (732a01da63, 2022-12-09)"
   sodipodi:docname="back.svg"
   xmlns:inkscape="http://www.inkscape.org/namespaces/inkscape"
   xmlns:sodipodi="http://sodipodi.sourceforge.net/DTD/sodipodi-0.dtd"
   xmlns="http://www.w3.org/2000/svg"
   xmlns:svg="http://www.w3.org/2000/svg">
  <sodipodi:namedview
     id="namedview7"
     pagecolor="#000000"
     bordercolor="#111111"
     borderopacity="1"
     inkscape:showpageshadow="0"
     inkscape:pageopacity="0"
     inkscape:pagecheckerboard="1"
     inkscape:deskcolor="#d1d1d1"
     inkscape:document-units="mm"
     showgrid="false"
     inkscape:zoom="0.63697915"
     inkscape:cx="880.71957"
     inkscape:cy="474.11285"
     inkscape:window-width="1920"
     inkscape:window-height="1009"
     inkscape:window-x="-8"
     inkscape:window-y="-8"
     inkscape:window-maximized="1"
     inkscape:current-layer="layer1" />
  <defs
     id="defs2" />
  <g
     inkscape:label="Layer 1"
     inkscape:groupmode="layer"
     id="layer1">
    <rect
       style="fill:#ffffff;stroke-width:1.617;stroke-linecap:round;stroke-linejoin:round;paint-order:fill markers stroke"
       id="rect231"
       width="2.4922321"
       height="258.77676"
       x="27.414555"
       y="11.630417" />
    <path
       id="rect233"
       style="fill:#ffffff;stroke-width:1.32292;stroke-linecap:round;stroke-linejoin:round;paint-order:fill markers stroke"
       d="M -0.11058757 0.20102132 L -0.0067179362 20.76204 L 28.550195 30.93868 L 29.9005 11.624097 L -0.11058757 0.20102132 z M 7.1049927 6.9701172 C 7.4028427 6.9671032 7.7181319 7.0081555 7.9592041 7.0905233 L 15.127759 9.5399862 C 15.556387 9.6864692 15.594612 9.9117516 15.212508 10.040214 L 12.935645 10.806059 C 12.553524 10.934581 11.889959 10.919442 11.461316 10.772986 L 7.2021444 9.3177775 C 6.773651 9.171343 6.3318737 9.3201784 6.2202922 9.6485067 L 5.8688924 10.682552 C 5.7573148 11.010882 6.0165123 11.399117 6.4450846 11.545549 L 10.704256 13.001274 C 11.132893 13.147753 11.392037 13.535823 11.280448 13.86427 L 10.930082 14.896765 C 10.818505 15.225127 10.376359 15.373432 9.9477132 15.226978 L 5.6885417 13.771769 C 5.2600465 13.625335 4.8183074 13.774062 4.7066895 14.102498 L 4.3552897 15.136027 C 4.2437122 15.464358 4.5029089 15.852593 4.9314819 15.999023 L 9.1906535 17.454232 C 9.6194297 17.600765 10.153923 17.995383 10.378178 18.331181 L 11.71453 20.332092 C 11.93889 20.667778 11.771901 20.822807 11.342977 20.676257 L 4.174939 18.226794 C 3.7463039 18.080315 3.2118298 17.685398 2.9874146 17.349845 L 1.6515788 15.349451 C 1.4272519 15.013868 1.3348415 14.470102 1.4464233 14.141772 L 3.3114258 8.6542521 C 3.4230034 8.3259215 3.8269768 7.9518842 4.2090454 7.8232951 L 6.4848755 7.0579671 C 6.6520302 7.0017098 6.8733315 6.9724614 7.1049927 6.9701172 z M 18.741492 10.946619 C 19.039288 10.943585 19.354477 10.984593 19.595703 11.067025 L 26.763741 13.516488 C 27.192315 13.662919 27.230549 13.888125 26.84849 14.016715 L 24.572144 14.782043 C 24.19007 14.910631 23.526664 14.896033 23.097815 14.749487 L 18.83916 13.294279 C 18.410235 13.147729 17.967851 13.296124 17.856274 13.624491 L 17.504875 14.658537 C 17.393321 14.986876 17.652909 15.375672 18.081584 15.52205 L 22.341789 16.977258 C 22.770393 17.123595 23.304595 17.518488 23.528796 17.854207 L 24.864632 19.853569 C 25.089015 20.18899 25.180886 20.73281 25.069271 21.061247 L 24.718388 22.094775 C 24.606853 22.423059 24.202905 22.796885 23.820768 22.925216 L 21.544421 23.69106 C 21.162372 23.819361 20.498936 23.805018 20.070093 23.658504 L 15.811438 22.203296 C 15.382511 22.056746 14.848221 21.661985 14.623914 21.326347 L 13.287561 19.325952 C 13.063216 18.990424 13.230268 18.835233 13.659115 18.981787 L 20.827153 21.43125 C 21.25608 21.5778 21.697945 21.428887 21.809521 21.100521 L 22.160921 20.066992 C 22.272511 19.738546 22.363726 19.470032 22.36401 19.470129 C 22.364261 19.470214 22.013447 19.350476 21.584729 19.203996 L 17.325041 17.748271 C 16.896399 17.601816 16.361558 17.207565 16.137516 16.871838 L 14.803231 14.872994 C 14.578907 14.537173 14.486523 13.993892 14.597559 13.665316 L 14.948442 12.630754 C 15.059522 12.302254 15.462888 11.928366 15.845028 11.799797 L 18.121375 11.033952 C 18.288561 10.977705 18.509872 10.948979 18.741492 10.946619 z " />
    <rect
       style="fill:#ffffff;stroke-width:0.767601;stroke-linecap:round;stroke-linejoin:round;paint-order:fill markers stroke"
       id="rect231-8"
       width="2.4922321"
       height="58.313686"
       x="21.183975"
       y="211.09483" />
    <path
       id="rect233-4-2-1"
       style="fill:#ffffff;stroke-width:1.1789;stroke-linecap:round;stroke-linejoin:round;paint-order:fill markers stroke"
       d="m -0.3146702,277.53542 23.9788252,-8.19189 -1.731736,-1.4538 -22.31148179,7.43458 z"
       sodipodi:nodetypes="ccccc" />
    <path
       id="rect233-4-2-1-6"
       style="fill:#ffffff;stroke-width:1.1789;stroke-linecap:round;stroke-linejoin:round;paint-order:fill markers stroke"
       d="m -0.94300191,219.81768 24.56624991,-8.41217 0.03054,-2.26151 -24.6611805,8.46257 z"
       sodipodi:nodetypes="ccccc" />
    <path
       id="rect233-4-2-1-4"
       style="fill:#ffffff;stroke-width:1.1789;stroke-linecap:round;stroke-linejoin:round;paint-order:fill markers stroke"
       d="M -0.64928962,222.97509 23.329535,214.7832 21.597799,213.3294 -0.71368221,220.76398 Z"
       sodipodi:nodetypes="ccccc" />
    <path
       id="rect233-0"
       style="fill:#ffffff;stroke-width:1.32292;stroke-linecap:round;stroke-linejoin:round;paint-order:fill markers stroke"
       d="m 0.12013437,281.12406 29.79034563,-9.80731 -0.02825,-2.0592 -29.73167973,9.66262 z"
       sodipodi:nodetypes="ccccc" />
    <path
       id="rect233-4-2-1-3"
       style="fill:#ffffff;stroke-width:1.1789;stroke-linecap:round;stroke-linejoin:round;paint-order:fill markers stroke"
       d="m -0.42900524,226.05907 23.97882524,-8.19189 -1.731736,-1.4538 -22.31148184,7.43458 z"
       sodipodi:nodetypes="ccccc" />
    <path
       d="M 22.661986,67.077595 Z"
       id="path3"
       inkscape:connector-curvature="0"
       style="fill:#d67e4d;fill-opacity:1;stroke-width:0.0648766" />
    <path
       d="M 24.175515,62.623854 Z"
       id="path5"
       inkscape:connector-curvature="0"
       style="fill:#d67e4d;fill-opacity:1;stroke-width:0.0648766" />
    <path
       d="M 25.689573,58.168553 Z"
       id="path7"
       inkscape:connector-curvature="0"
       style="fill:#d67e4d;fill-opacity:1;stroke-width:0.0648766" />
    <path
       d="M 24.93269,60.395773 Z"
       id="path9"
       inkscape:connector-curvature="0"
       style="fill:#d67e4d;fill-opacity:1;stroke-width:0.0648766" />
    <path
       d="M 21.905103,69.304814 Z"
       id="path11"
       inkscape:connector-curvature="0"
       style="fill:#d67e4d;fill-opacity:1;stroke-width:0.0648766" />
    <path
       d="M 23.419015,64.849945 Z"
       id="path13"
       inkscape:connector-curvature="0"
       style="fill:#d67e4d;fill-opacity:1;stroke-width:0.0648766" />
  </g>
</svg>
