<?xml version="1.0" encoding="UTF-8" standalone="no"?>
<!-- Created with Inkscape (http://www.inkscape.org/) -->

<svg
   width="900"
   height="1500"
   viewBox="0 0 238.12499 396.875"
   version="1.1"
   id="svg5"
   inkscape:version="1.2.2 (732a01da63, 2022-12-09)"
   sodipodi:docname="gamemetaback.svg"
   xmlns:inkscape="http://www.inkscape.org/namespaces/inkscape"
   xmlns:sodipodi="http://sodipodi.sourceforge.net/DTD/sodipodi-0.dtd"
   xmlns="http://www.w3.org/2000/svg"
   xmlns:svg="http://www.w3.org/2000/svg">
  <sodipodi:namedview
     id="namedview7"
     pagecolor="#000000"
     bordercolor="#111111"
     borderopacity="1"
     inkscape:showpageshadow="0"
     inkscape:pageopacity="0"
     inkscape:pagecheckerboard="1"
     inkscape:deskcolor="#d1d1d1"
     inkscape:document-units="mm"
     showgrid="false"
     inkscape:zoom="1.7829374"
     inkscape:cx="630.42035"
     inkscape:cy="856.45185"
     inkscape:window-width="1920"
     inkscape:window-height="1009"
     inkscape:window-x="-8"
     inkscape:window-y="-8"
     inkscape:window-maximized="1"
     inkscape:current-layer="layer1" />
  <defs
     id="defs2" />
  <g
     inkscape:label="Layer 1"
     inkscape:groupmode="layer"
     id="layer1">
    <rect
       style="fill:#ffffff;stroke-width:2.93944;stroke-linecap:round;stroke-linejoin:round;paint-order:fill markers stroke"
       id="rect843"
       width="24.41469"
       height="227.75339"
       x="-6.4246178"
       y="-9.4078283" />
    <rect
       style="fill:#ffffff;stroke-width:2.93944;stroke-linecap:round;stroke-linejoin:round;paint-order:fill markers stroke"
       id="rect843-93"
       width="24.41469"
       height="227.75339"
       x="-16.203796"
       y="114.03742" />
    <rect
       style="fill:#ffffff;stroke-width:1.85466;stroke-linecap:round;stroke-linejoin:round;paint-order:fill markers stroke"
       id="rect843-6"
       width="15.315894"
       height="144.53574"
       x="-6.8229871"
       y="243.99121" />
    <path
       id="rect843-1"
       style="fill:#ffffff;stroke-width:1.2799;stroke-linecap:round;stroke-linejoin:round;paint-order:fill markers stroke"
       transform="matrix(0.18763562,-0.98223871,0.40792677,0.91301465,0,0)"
       d="m -143.52927,84.751442 5.13812,-2.422168 4.96669,28.690396 -6.26196,2.75721 z"
       sodipodi:nodetypes="ccccc" />
    <path
       id="rect843-1-8"
       style="fill:#ffffff;stroke-width:0.967993;stroke-linecap:round;stroke-linejoin:round;paint-order:fill markers stroke"
       d="m 6.9277556,221.21156 0.605624,-9.56686 14.1045684,24.04453 -0.260096,6.98919 z"
       sodipodi:nodetypes="ccccc" />
    <path
       id="rect843-1-61"
       style="fill:#ffffff;stroke-width:0.967993;stroke-linecap:round;stroke-linejoin:round;paint-order:fill markers stroke"
       d="m 7.6458019,211.13451 -0.023973,-7.25833 12.6355081,21.31628 -0.05023,8.66811 z"
       sodipodi:nodetypes="ccccc" />
    <path
       id="rect843-1-68"
       style="fill:#ffffff;stroke-width:0.967993;stroke-linecap:round;stroke-linejoin:round;paint-order:fill markers stroke"
       d="m 7.6458019,206.90115 -0.023973,-7.25833 12.6355081,21.31628 -0.05023,8.66811 z"
       sodipodi:nodetypes="ccccc" />
    <path
       id="rect843-1-3"
       style="fill:#ffffff;stroke-width:0.967993;stroke-linecap:round;stroke-linejoin:round;paint-order:fill markers stroke"
       d="m 7.9246175,248.19732 -0.023973,-4.53008 12.8363725,20.21293 -0.07196,4.34724 z"
       sodipodi:nodetypes="ccccc" />
    <path
       id="rect843-1-3-3"
       style="fill:#ffffff;stroke-width:0.967993;stroke-linecap:round;stroke-linejoin:round;paint-order:fill markers stroke"
       d="m 8.2963834,252.82976 -0.023973,-4.53008 12.8363726,20.21293 -0.07196,4.34724 z"
       sodipodi:nodetypes="ccccc" />
    <path
       id="rect843-1-3-5"
       style="fill:#ffffff;stroke-width:0.967993;stroke-linecap:round;stroke-linejoin:round;paint-order:fill markers stroke"
       d="m 8.2963834,257.06312 -0.023973,-4.53008 12.8363726,20.21293 -0.07196,4.34724 z"
       sodipodi:nodetypes="ccccc" />
    <path
       id="rect843-1-3-53"
       style="fill:#ffffff;stroke-width:0.967993;stroke-linecap:round;stroke-linejoin:round;paint-order:fill markers stroke"
       d="m 8.2963834,261.29648 -0.023973,-4.53008 12.8363726,20.21293 -0.07196,4.34724 z"
       sodipodi:nodetypes="ccccc" />
    <path
       id="rect843-1-3-4"
       style="fill:#ffffff;stroke-width:0.967993;stroke-linecap:round;stroke-linejoin:round;paint-order:fill markers stroke"
       d="m 8.2963834,265.52984 -0.023973,-4.53008 12.8363726,20.21293 -0.07196,4.34724 z"
       sodipodi:nodetypes="ccccc" />
    <path
       id="rect843-1-3-9"
       style="fill:#ffffff;stroke-width:0.967993;stroke-linecap:round;stroke-linejoin:round;paint-order:fill markers stroke"
       d="m 8.2963834,269.7632 -0.023973,-4.53008 12.8363726,20.21293 -0.07196,4.34724 z"
       sodipodi:nodetypes="ccccc" />
    <path
       id="rect843-1-3-2"
       style="fill:#ffffff;stroke-width:0.967993;stroke-linecap:round;stroke-linejoin:round;paint-order:fill markers stroke"
       d="m 8.2963834,271.87988 -0.023973,-4.53008 12.8363726,20.21293 -0.07196,4.34724 z"
       sodipodi:nodetypes="ccccc" />
    <path
       id="rect843-1-3-98"
       style="fill:#ffffff;stroke-width:0.967993;stroke-linecap:round;stroke-linejoin:round;paint-order:fill markers stroke"
       d="m 8.2963834,274.52573 -0.023973,-4.53008 12.8363726,20.21293 -0.07196,4.34724 z"
       sodipodi:nodetypes="ccccc" />
    <path
       id="rect843-1-3-6"
       style="fill:#ffffff;stroke-width:0.967993;stroke-linecap:round;stroke-linejoin:round;paint-order:fill markers stroke"
       d="m 8.2963834,278.75909 -0.023973,-4.53008 12.8363726,20.21293 -0.07196,4.34724 z"
       sodipodi:nodetypes="ccccc" />
    <path
       id="rect843-1-3-39"
       style="fill:#ffffff;stroke-width:0.967993;stroke-linecap:round;stroke-linejoin:round;paint-order:fill markers stroke"
       d="m 8.2963834,249.12557 -0.023973,-4.53008 12.8363726,20.21293 -0.07196,4.34724 z"
       sodipodi:nodetypes="ccccc" />
    <path
       id="rect843-1-3-39-0"
       style="fill:#ffffff;stroke-width:0.967993;stroke-linecap:round;stroke-linejoin:round;paint-order:fill markers stroke"
       d="m 7.867647,244.02571 -0.023973,-4.53008 12.836372,20.21293 -0.07196,4.34724 z"
       sodipodi:nodetypes="ccccc" />
    <path
       id="rect843-1-3-39-0-7"
       style="fill:#ffffff;stroke-width:0.967993;stroke-linecap:round;stroke-linejoin:round;paint-order:fill markers stroke"
       d="m 12.96746,251.60661 -0.02397,-4.53008 12.836374,20.21293 -0.07196,4.34724 z"
       sodipodi:nodetypes="ccccc" />
    <path
       id="rect843-1-6"
       style="fill:#ffffff;stroke-width:0.967993;stroke-linecap:round;stroke-linejoin:round;paint-order:fill markers stroke"
       d="m 136.3068,18.982916 7.25833,-0.024 -21.31628,12.63551 -8.66812,-0.0502 z"
       sodipodi:nodetypes="ccccc" />
    <path
       id="rect843-1-6-7"
       style="fill:#ffffff;stroke-width:1.71832;stroke-linecap:round;stroke-linejoin:round;paint-order:fill markers stroke"
       d="m 147.11385,8.7969619 12.88452,-0.0426 -37.83928,22.4297421 -15.38713,-0.08911 z"
       sodipodi:nodetypes="ccccc" />
    <path
       id="rect843-1-6-7-5"
       style="fill:#ffffff;stroke-width:1.71832;stroke-linecap:round;stroke-linejoin:round;paint-order:fill markers stroke"
       d="m 141.62893,8.379332 12.88452,-0.0426 -37.83941,22.429748 -15.38721,-0.08911 z"
       sodipodi:nodetypes="ccccc" />
    <path
       id="rect843-1-6-7-7"
       style="fill:#ffffff;stroke-width:1.71832;stroke-linecap:round;stroke-linejoin:round;paint-order:fill markers stroke"
       d="m 129.98719,7.8501653 12.88452,-0.0426 -37.83941,22.4297477 -15.387154,-0.08911 z"
       sodipodi:nodetypes="ccccc" />
    <path
       id="rect843-1-6-7-8"
       style="fill:#ffffff;stroke-width:1.71832;stroke-linecap:round;stroke-linejoin:round;paint-order:fill markers stroke"
       d="m 120.46213,7.8501653 12.88452,-0.0426 -37.83938,22.4297477 -15.38713,-0.08911 z"
       sodipodi:nodetypes="ccccc" />
    <path
       id="rect843-1-6-53"
       style="fill:#ffffff;stroke-width:0.967993;stroke-linecap:round;stroke-linejoin:round;paint-order:fill markers stroke"
       d="m 104.8553,18.579829 7.25835,-0.024 -21.316322,12.63551 -8.66812,-0.0502 z"
       sodipodi:nodetypes="ccccc" />
    <path
       id="rect843-1-6-6"
       style="fill:#ffffff;stroke-width:0.967993;stroke-linecap:round;stroke-linejoin:round;paint-order:fill markers stroke"
       d="m 88.980268,18.579829 7.258306,-0.024 -21.316256,12.63551 -8.66812,-0.0502 z"
       sodipodi:nodetypes="ccccc" />
    <rect
       style="fill:#ffffff;stroke-width:1.16287;stroke-linecap:round;stroke-linejoin:round;paint-order:fill markers stroke"
       id="rect843-0"
       width="4.1930137"
       height="207.55403"
       x="17.550936"
       y="28.644329" />
    <rect
       style="fill:#ffffff;stroke-width:2.03239;stroke-linecap:round;stroke-linejoin:round;paint-order:fill markers stroke"
       id="rect843-0-2"
       width="25.286543"
       height="105.12577"
       x="9.6578531"
       y="-122.46088"
       transform="rotate(90)" />
    <path
       id="rect843-1-9"
       style="fill:#ffffff;stroke-width:1.44371;stroke-linecap:round;stroke-linejoin:round;paint-order:fill markers stroke"
       d="m 238.64528,244.55273 0.0911,6.17754 -16.52121,-21.83234 0.29623,-4.73891 z"
       sodipodi:nodetypes="ccccc" />
    <path
       id="rect843-1-9-96"
       style="fill:#ffffff;stroke-width:1.44371;stroke-linecap:round;stroke-linejoin:round;paint-order:fill markers stroke"
       d="m 235.49007,243.4709 0.0911,6.17754 -16.52121,-21.83234 0.29623,-4.73891 z"
       sodipodi:nodetypes="ccccc" />
    <path
       id="rect843-1-9-3"
       style="fill:#ffffff;stroke-width:1.44371;stroke-linecap:round;stroke-linejoin:round;paint-order:fill markers stroke"
       d="m 241.31337,242.91504 0.0911,6.17754 -16.52121,-21.83234 0.29623,-4.73891 z"
       sodipodi:nodetypes="ccccc" />
    <path
       id="rect843-1-9-9"
       style="fill:#ffffff;stroke-width:1.44371;stroke-linecap:round;stroke-linejoin:round;paint-order:fill markers stroke"
       d="m 245.54673,243.44421 0.0911,6.17754 -16.52121,-21.83234 0.29623,-4.73891 z"
       sodipodi:nodetypes="ccccc" />
    <path
       id="rect843-1-9-6"
       style="fill:#ffffff;stroke-width:1.44371;stroke-linecap:round;stroke-linejoin:round;paint-order:fill markers stroke"
       d="m 248.19258,241.8567 0.0911,6.17754 -16.52121,-21.83234 0.29623,-4.73891 z"
       sodipodi:nodetypes="ccccc" />
    <path
       id="rect843-1-9-30"
       style="fill:#ffffff;stroke-width:1.44371;stroke-linecap:round;stroke-linejoin:round;paint-order:fill markers stroke"
       d="m 248.72175,237.62334 0.0911,6.17754 -16.52121,-21.83234 0.29623,-4.73891 z"
       sodipodi:nodetypes="ccccc" />
    <path
       id="rect843-1-9-98"
       style="fill:#ffffff;stroke-width:1.44371;stroke-linecap:round;stroke-linejoin:round;paint-order:fill markers stroke"
       d="m 242.90088,238.15251 0.0911,6.17754 -16.52121,-21.83234 0.29623,-4.73891 z"
       sodipodi:nodetypes="ccccc" />
    <rect
       style="fill:#ffffff;stroke-width:2.22734;stroke-linecap:round;stroke-linejoin:round;paint-order:fill markers stroke"
       id="rect843-0-6"
       width="19.227709"
       height="166.04602"
       x="-238.22176"
       y="-227.21518"
       transform="scale(-1)" />
    <rect
       style="fill:#ffffff;stroke-width:2.7604;stroke-linecap:round;stroke-linejoin:round;paint-order:fill markers stroke"
       id="rect843-9"
       width="21.701475"
       height="225.96738"
       x="-9.3909588"
       y="-233.94713"
       transform="matrix(-0.00157638,0.99999876,-0.99999034,-0.00439638,0,0)" />
    <rect
       style="fill:#ffffff;stroke-width:0.951592;stroke-linecap:round;stroke-linejoin:round;paint-order:fill markers stroke"
       id="rect843-9-3"
       width="2.5857944"
       height="225.37367"
       x="387.66223"
       y="-238.32025"
       transform="matrix(-0.01319527,0.99991294,-0.99999986,-5.2517802e-4,0,0)" />
    <rect
       style="fill:#ffffff;stroke-width:1.46218;stroke-linecap:round;stroke-linejoin:round;paint-order:fill markers stroke"
       id="rect843-97"
       width="13.866352"
       height="99.226257"
       x="228.37648"
       y="-11.60689" />
    <rect
       style="fill:#ffffff;stroke-width:1.94329;stroke-linecap:round;stroke-linejoin:round;paint-order:fill markers stroke"
       id="rect843-97-0"
       width="15.945491"
       height="152.41524"
       x="227.19633"
       y="237.92442" />
    <path
       id="rect843-1-6-3-8"
       style="fill:#ffffff;stroke-width:0.886809;stroke-linecap:round;stroke-linejoin:round;paint-order:fill markers stroke"
       d="m 208.62889,282.50483 4.62229,0.0104 -23.76485,-18.51386 -0.1534,3.98351 z"
       sodipodi:nodetypes="ccccc" />
    <path
       id="rect843-1-6-3-8-0"
       style="fill:#ffffff;stroke-width:0.886809;stroke-linecap:round;stroke-linejoin:round;paint-order:fill markers stroke"
       d="m 203.7711,282.28176 4.62229,0.0104 -23.76485,-18.51386 -0.1534,3.98351 z"
       sodipodi:nodetypes="ccccc" />
    <path
       id="rect843-1-6-3-8-7"
       style="fill:#ffffff;stroke-width:0.886809;stroke-linecap:round;stroke-linejoin:round;paint-order:fill markers stroke"
       d="m 199.53774,282.28176 4.62229,0.0104 -23.76485,-18.51386 -0.1534,3.98351 z"
       sodipodi:nodetypes="ccccc" />
    <path
       id="rect843-1-6-3-8-4"
       style="fill:#ffffff;stroke-width:0.886809;stroke-linecap:round;stroke-linejoin:round;paint-order:fill markers stroke"
       d="m 197.42106,282.28176 4.62229,0.0104 -23.76485,-18.51386 -0.1534,3.98351 z"
       sodipodi:nodetypes="ccccc" />
    <path
       id="rect843-1-6-3-8-02"
       style="fill:#ffffff;stroke-width:0.886809;stroke-linecap:round;stroke-linejoin:round;paint-order:fill markers stroke"
       d="m 196.36272,282.28176 4.62229,0.0104 -23.76485,-18.51386 -0.1534,3.98351 z"
       sodipodi:nodetypes="ccccc" />
    <path
       id="rect843-1-6-3-8-74"
       style="fill:#ffffff;stroke-width:0.886809;stroke-linecap:round;stroke-linejoin:round;paint-order:fill markers stroke"
       d="m 188.42517,282.28176 4.62229,0.0104 -23.76485,-18.51386 -0.1534,3.98351 z"
       sodipodi:nodetypes="ccccc" />
    <path
       id="rect843-1-6-3-8-15"
       style="fill:#ffffff;stroke-width:0.886809;stroke-linecap:round;stroke-linejoin:round;paint-order:fill markers stroke"
       d="m 203.7711,282.28176 4.62229,0.0104 -23.76485,-18.51386 -0.1534,3.98351 z"
       sodipodi:nodetypes="ccccc" />
    <path
       id="rect843-1-6-3-8-15-4"
       style="fill:#ffffff;stroke-width:0.886809;stroke-linecap:round;stroke-linejoin:round;paint-order:fill markers stroke"
       d="m 208.37174,280.47833 4.62229,0.0104 -23.76485,-18.51386 -0.1534,3.98351 z"
       sodipodi:nodetypes="ccccc" />
    <path
       id="rect843-1-6-3-8-15-8"
       style="fill:#ffffff;stroke-width:0.886809;stroke-linecap:round;stroke-linejoin:round;paint-order:fill markers stroke"
       d="m 209.66246,280.29485 4.62229,0.0104 -23.76485,-18.51386 -0.1534,3.98351 z"
       sodipodi:nodetypes="ccccc" />
    <path
       id="rect843-1-6-3-8-2"
       style="fill:#ffffff;stroke-width:0.886809;stroke-linecap:round;stroke-linejoin:round;paint-order:fill markers stroke"
       d="m 192.04685,282.51572 4.77969,0.0628 -23.76485,-18.51386 -0.3108,4.03598 z"
       sodipodi:nodetypes="ccccc" />
    <path
       id="rect843-1-6-3-8-1"
       style="fill:#ffffff;stroke-width:0.886809;stroke-linecap:round;stroke-linejoin:round;paint-order:fill markers stroke"
       d="m 177.51366,282.52415 4.83216,0.0104 -23.76485,-18.51386 0.0565,4.03598 z"
       sodipodi:nodetypes="ccccc" />
    <rect
       style="fill:#ffffff;stroke-width:2.43954;stroke-linecap:round;stroke-linejoin:round;paint-order:fill markers stroke"
       id="rect843-0-2-5"
       width="22.534508"
       height="169.96371"
       x="-284.49048"
       y="-190.53265"
       transform="matrix(0,-1,-1,0,0,0)" />
    <rect
       style="fill:#ffffff;stroke-width:1.44846;stroke-linecap:round;stroke-linejoin:round;paint-order:fill markers stroke"
       id="rect843-0-2-5-1"
       width="7.3117881"
       height="184.66486"
       x="-285.1907"
       y="-228.64018"
       transform="matrix(0,-1,-1,0,0,0)" />
    <path
       id="rect843-1-6-7-1"
       style="fill:#ffffff;stroke-width:1.71832;stroke-linecap:round;stroke-linejoin:round;paint-order:fill markers stroke"
       d="m 148.84516,8.1193956 12.88452,-0.0426 -37.83928,22.4297424 -15.3872,-0.08911 z"
       sodipodi:nodetypes="ccccc" />
    <path
       id="rect843-1-6-7-1-6"
       style="fill:#ffffff;stroke-width:1.71832;stroke-linecap:round;stroke-linejoin:round;paint-order:fill markers stroke"
       d="m 147.93331,12.660991 12.88452,-0.0426 -37.83928,22.429742 -15.3872,-0.08911 z"
       sodipodi:nodetypes="ccccc" />
  </g>
</svg>
