<?xml version="1.0" encoding="UTF-8" standalone="no"?>
<!-- Created with Inkscape (http://www.inkscape.org/) -->

<svg
   width="1920"
   height="1080"
   viewBox="0 0 507.99998 285.75"
   version="1.1"
   id="svg5"
   inkscape:version="1.2.2 (732a01da63, 2022-12-09)"
   sodipodi:docname="right.svg"
   xmlns:inkscape="http://www.inkscape.org/namespaces/inkscape"
   xmlns:sodipodi="http://sodipodi.sourceforge.net/DTD/sodipodi-0.dtd"
   xmlns="http://www.w3.org/2000/svg"
   xmlns:svg="http://www.w3.org/2000/svg">
  <sodipodi:namedview
     id="namedview7"
     pagecolor="#000000"
     bordercolor="#111111"
     borderopacity="1"
     inkscape:showpageshadow="0"
     inkscape:pageopacity="0"
     inkscape:pagecheckerboard="1"
     inkscape:deskcolor="#d1d1d1"
     inkscape:document-units="mm"
     showgrid="false"
     inkscape:zoom="0.90082458"
     inkscape:cx="1722.3109"
     inkscape:cy="345.23925"
     inkscape:window-width="1920"
     inkscape:window-height="1009"
     inkscape:window-x="-8"
     inkscape:window-y="-8"
     inkscape:window-maximized="1"
     inkscape:current-layer="layer1" />
  <defs
     id="defs2" />
  <g
     inkscape:label="Layer 1"
     inkscape:groupmode="layer"
     id="layer1">
    <rect
       style="fill:#ffffff;stroke-width:1.617;stroke-linecap:round;stroke-linejoin:round;paint-order:fill markers stroke"
       id="rect231"
       width="2.4922321"
       height="258.77676"
       x="-481.18512"
       y="11.778983"
       transform="scale(-1,1)" />
    <rect
       style="fill:#ffffff;stroke-width:0.766867;stroke-linecap:round;stroke-linejoin:round;paint-order:fill markers stroke"
       id="rect231-8"
       width="2.4922321"
       height="58.202198"
       x="-487.41571"
       y="211.3549"
       transform="scale(-1,1)" />
    <path
       id="rect233-4-2-1"
       style="fill:#ffffff;stroke-width:1.1789;stroke-linecap:round;stroke-linejoin:round;paint-order:fill markers stroke"
       d="m 508.91433,277.68399 -23.97882,-8.19189 1.73173,-1.4538 22.31148,7.43458 z"
       sodipodi:nodetypes="ccccc" />
    <path
       id="rect233-4-2-1-6"
       style="fill:#ffffff;stroke-width:1.1789;stroke-linecap:round;stroke-linejoin:round;paint-order:fill markers stroke"
       d="m 509.54266,219.7876 -24.56625,-8.41217 -0.0305,-2.26151 24.66118,8.46257 z"
       sodipodi:nodetypes="ccccc" />
    <path
       id="rect233-4-2-1-4"
       style="fill:#ffffff;stroke-width:1.1789;stroke-linecap:round;stroke-linejoin:round;paint-order:fill markers stroke"
       d="m 509.24895,222.94501 -23.97882,-8.19189 1.73173,-1.4538 22.31148,7.43458 z"
       sodipodi:nodetypes="ccccc" />
    <path
       id="rect233-0"
       style="fill:#ffffff;stroke-width:1.32292;stroke-linecap:round;stroke-linejoin:round;paint-order:fill markers stroke"
       d="m 508.47953,281.27263 -29.79035,-9.80731 0.0283,-2.0592 29.73168,9.66262 z"
       sodipodi:nodetypes="ccccc" />
    <path
       id="rect233-0-4"
       style="fill:#ffffff;stroke-width:1.32292;stroke-linecap:round;stroke-linejoin:round;paint-order:fill markers stroke"
       d="m 478.87112,13.617642 29.79035,-9.8073102 -0.0283,-2.0592 -29.73168,9.6626202 z"
       sodipodi:nodetypes="ccccc" />
    <path
       id="rect233-4-2-1-3"
       style="fill:#ffffff;stroke-width:1.1789;stroke-linecap:round;stroke-linejoin:round;paint-order:fill markers stroke"
       d="m 509.02867,226.02899 -23.97883,-8.19189 1.73174,-1.4538 22.31148,7.43458 z"
       sodipodi:nodetypes="ccccc" />
    <path
       d="M 481.17517,23.834477 Z"
       id="path3"
       inkscape:connector-curvature="0"
       style="fill:#d67e4d;fill-opacity:1;stroke-width:0.0648766" />
    <path
       d="M 479.66164,19.380736 Z"
       id="path5"
       inkscape:connector-curvature="0"
       style="fill:#d67e4d;fill-opacity:1;stroke-width:0.0648766" />
    <path
       d="M 478.14758,14.925436 Z"
       id="path7"
       inkscape:connector-curvature="0"
       style="fill:#d67e4d;fill-opacity:1;stroke-width:0.0648766" />
    <path
       d="M 478.90447,17.152655 Z"
       id="path9"
       inkscape:connector-curvature="0"
       style="fill:#d67e4d;fill-opacity:1;stroke-width:0.0648766" />
    <path
       d="M 481.93205,26.061696 Z"
       id="path11"
       inkscape:connector-curvature="0"
       style="fill:#d67e4d;fill-opacity:1;stroke-width:0.0648766" />
    <path
       d="M 480.41814,21.606827 Z"
       id="path13"
       inkscape:connector-curvature="0"
       style="fill:#d67e4d;fill-opacity:1;stroke-width:0.0648766" />
    <g
       aria-label="System Select"
       id="text1086"
       style="font-size:174.491px;font-family:Haettenschweiler;-inkscape-font-specification:'Haettenschweiler, Normal';fill:#ffffff;stroke-width:1.32292;stroke-linecap:round;stroke-linejoin:round;paint-order:fill markers stroke"
       transform="matrix(0,0.92178356,-0.562512,0,527.43025,-299.8742)">
      <path
         d="m 355.237,44.067155 v 2.5654 h -6.6802 q -0.4318,0 -0.762,0.2286 -0.3302,0.2286 -0.5588,0.635 -0.2286,0.4064 -0.3556,0.9398 -0.1016,0.508 -0.1016,1.0922 0,1.3208 0.4826,2.1336 0.4826,0.8128 1.2954,0.8128 h 3.429 q 1.0414,0 1.8288,0.4318 0.7874,0.4318 1.3208,1.1938 0.5334,0.762 0.7874,1.8288 0.2794,1.0414 0.2794,2.286 0,1.3462 -0.3048,2.5146 -0.2794,1.143 -0.8128,2.0066 -0.5334,0.8636 -1.27,1.3716 -0.7366,0.4826 -1.6256,0.4826 h -8.4836 v -2.5146 h 6.8326 q 0.4572,0 0.8128,-0.254 0.3556,-0.2794 0.6096,-0.7366 0.254,-0.4572 0.381,-1.0668 0.127,-0.635 0.127,-1.3462 0,-0.8382 -0.1524,-1.4224 -0.127,-0.5842 -0.4826,-0.9144 -0.3302,-0.3556 -0.889,-0.508 -0.5588,-0.1524 -1.4224,-0.1524 h -2.2098 q -1.0414,0 -1.8542,-0.4064 -0.8128,-0.4318 -1.3716,-1.1684 -0.5334,-0.762 -0.8128,-1.8034 -0.2794,-1.0414 -0.2794,-2.3114 0,-1.2192 0.2794,-2.286 0.2794,-1.0922 0.7874,-1.8796 0.508,-0.8128 1.2192,-1.27 0.7366,-0.4826 1.6256,-0.4826 z"
         style="font-size:25.4px;font-family:Unispace;-inkscape-font-specification:'Unispace, Normal'"
         id="path2906" />
      <path
         d="m 362.0442,48.308955 3.5052,10.5918 h 0.127 l 3.5306,-10.5918 h 3.3528 l -8.1534,22.4536 h -3.5052 l 2.6416,-6.604 -5.7658,-15.8496 z"
         style="font-size:25.4px;font-family:Unispace;-inkscape-font-specification:'Unispace, Normal'"
         id="path2908" />
      <path
         d="m 386.4028,48.308955 v 2.5654 h -7.7978 q -0.6604,0 -1.0414,0.4318 -0.3556,0.4318 -0.3556,1.4986 0,1.9304 1.397,1.9304 h 5.3594 q 0.8636,0 1.524,0.381 0.6604,0.3556 1.1176,0.9906 0.4572,0.6096 0.6858,1.4732 0.254,0.8382 0.254,1.8288 0,2.4638 -0.9398,3.8354 -0.9398,1.3462 -2.794,1.3462 h -9.4996 v -2.5146 h 8.6614 q 0.508,0 0.8128,-0.508 0.3048,-0.508 0.3048,-1.5748 0,-1.0668 -0.3048,-1.5494 -0.3048,-0.4826 -0.8128,-0.4826 h -5.5626 q -0.9144,0 -1.6002,-0.3556 -0.6858,-0.381 -1.143,-1.0414 -0.4318,-0.6604 -0.6604,-1.5494 -0.2286,-0.9144 -0.2286,-1.9558 0,-2.2352 0.9652,-3.4798 0.9652,-1.27 2.9718,-1.27 z"
         style="font-size:25.4px;font-family:Unispace;-inkscape-font-specification:'Unispace, Normal'"
         id="path2910" />
      <path
         d="m 397.5026,44.067155 v 4.2418 h 5.1054 v 2.5654 h -5.1054 v 8.8646 q 0,0.8382 0.0508,1.3208 0.0762,0.4572 0.3556,0.6858 0.3048,0.2286 0.8636,0.2794 0.5842,0.0508 1.6256,0.0508 v 2.5146 h -2.6416 q -1.27,0 -2.0828,-0.1778 -0.8128,-0.2032 -1.2954,-0.6858 -0.4826,-0.4826 -0.6858,-1.3208 -0.1778,-0.8382 -0.1778,-2.1336 v -9.398 h -3.7846 v -2.5654 h 3.7846 v -4.2418 z"
         style="font-size:25.4px;font-family:Unispace;-inkscape-font-specification:'Unispace, Normal'"
         id="path2912" />
      <path
         d="m 414.8762,48.308955 q 1.6002,0 2.54,1.1684 0.9398,1.143 0.9398,3.6576 0,2.5146 -0.889,3.6068 -0.8636,1.0922 -2.5908,1.0922 h -5.8674 v 1.4478 q 0,0.9144 0.0762,1.4732 0.1016,0.5588 0.3302,0.8636 0.2286,0.2794 0.6096,0.381 0.4064,0.0762 0.9906,0.0762 h 5.9436 v 2.5146 h -7.7216 q -1.1176,0 -1.905,-0.2794 -0.7874,-0.2794 -1.2954,-0.889 -0.508,-0.635 -0.762,-1.651 -0.2286,-1.016 -0.2286,-2.5146 v -5.6388 q 0,-1.4732 0.2286,-2.4892 0.254,-1.016 0.762,-1.6256 0.508,-0.635 1.2954,-0.9144 0.7874,-0.2794 1.905,-0.2794 z m -5.8674,7.1882 h 4.2672 q 0.4064,0 0.6858,-0.0762 0.3048,-0.0762 0.4826,-0.3302 0.1778,-0.254 0.254,-0.7112 0.0762,-0.4826 0.0762,-1.27 0,-0.762 -0.0762,-1.1938 -0.0508,-0.4572 -0.2286,-0.6858 -0.1524,-0.2286 -0.4572,-0.2794 -0.2794,-0.0762 -0.7366,-0.0762 h -2.7178 q -0.4572,0 -0.762,0.127 -0.3048,0.127 -0.4826,0.4318 -0.1778,0.3048 -0.254,0.8382 -0.0508,0.508 -0.0508,1.2954 z"
         style="font-size:25.4px;font-family:Unispace;-inkscape-font-specification:'Unispace, Normal'"
         id="path2914" />
      <path
         d="m 429.786,48.308955 q 1.143,0 1.9558,0.254 0.8128,0.2286 1.3208,0.8128 0.508,0.5842 0.7366,1.5494 0.2286,0.9652 0.2286,2.413 v 11.2522 h -3.429 v -10.9728 q 0,-0.8128 -0.0762,-1.3462 -0.0762,-0.5334 -0.2794,-0.8382 -0.1778,-0.3048 -0.4826,-0.4318 -0.2794,-0.127 -0.7112,-0.127 h -0.6096 v 13.716 h -2.667 v -13.716 h -1.8034 v 13.716 h -3.556 v -16.2814 z"
         style="font-size:25.4px;font-family:Unispace;-inkscape-font-specification:'Unispace, Normal'"
         id="path2916" />
      <path
         d="m 463.87281,44.067155 v 2.5654 h -6.6802 q -0.4318,0 -0.762,0.2286 -0.3302,0.2286 -0.5588,0.635 -0.2286,0.4064 -0.3556,0.9398 -0.1016,0.508 -0.1016,1.0922 0,1.3208 0.4826,2.1336 0.4826,0.8128 1.2954,0.8128 h 3.429 q 1.0414,0 1.8288,0.4318 0.7874,0.4318 1.3208,1.1938 0.5334,0.762 0.7874,1.8288 0.2794,1.0414 0.2794,2.286 0,1.3462 -0.3048,2.5146 -0.2794,1.143 -0.8128,2.0066 -0.5334,0.8636 -1.27,1.3716 -0.7366,0.4826 -1.6256,0.4826 h -8.4836 v -2.5146 h 6.8326 q 0.4572,0 0.8128,-0.254 0.3556,-0.2794 0.6096,-0.7366 0.254,-0.4572 0.381,-1.0668 0.127,-0.635 0.127,-1.3462 0,-0.8382 -0.1524,-1.4224 -0.127,-0.5842 -0.4826,-0.9144 -0.3302,-0.3556 -0.889,-0.508 -0.5588,-0.1524 -1.4224,-0.1524 h -2.2098 q -1.0414,0 -1.8542,-0.4064 -0.8128,-0.4318 -1.3716,-1.1684 -0.5334,-0.762 -0.8128,-1.8034 -0.2794,-1.0414 -0.2794,-2.3114 0,-1.2192 0.2794,-2.286 0.2794,-1.0922 0.7874,-1.8796 0.508,-0.8128 1.2192,-1.27 0.7366,-0.4826 1.6256,-0.4826 z"
         style="font-size:25.4px;font-family:Unispace;-inkscape-font-specification:'Unispace, Normal'"
         id="path2918" />
      <path
         d="m 476.95381,48.308955 q 1.6002,0 2.54,1.1684 0.9398,1.143 0.9398,3.6576 0,2.5146 -0.889,3.6068 -0.8636,1.0922 -2.5908,1.0922 h -5.8674 v 1.4478 q 0,0.9144 0.0762,1.4732 0.1016,0.5588 0.3302,0.8636 0.2286,0.2794 0.6096,0.381 0.4064,0.0762 0.9906,0.0762 h 5.9436 v 2.5146 h -7.7216 q -1.1176,0 -1.905,-0.2794 -0.7874,-0.2794 -1.2954,-0.889 -0.508,-0.635 -0.762,-1.651 -0.2286,-1.016 -0.2286,-2.5146 v -5.6388 q 0,-1.4732 0.2286,-2.4892 0.254,-1.016 0.762,-1.6256 0.508,-0.635 1.2954,-0.9144 0.7874,-0.2794 1.905,-0.2794 z m -5.8674,7.1882 h 4.2672 q 0.4064,0 0.6858,-0.0762 0.3048,-0.0762 0.4826,-0.3302 0.1778,-0.254 0.254,-0.7112 0.0762,-0.4826 0.0762,-1.27 0,-0.762 -0.0762,-1.1938 -0.0508,-0.4572 -0.2286,-0.6858 -0.1524,-0.2286 -0.4572,-0.2794 -0.2794,-0.0762 -0.7366,-0.0762 h -2.7178 q -0.4572,0 -0.762,0.127 -0.3048,0.127 -0.4826,0.4318 -0.1778,0.3048 -0.254,0.8382 -0.0508,0.508 -0.0508,1.2954 z"
         style="font-size:25.4px;font-family:Unispace;-inkscape-font-specification:'Unispace, Normal'"
         id="path2920" />
      <path
         d="m 491.20322,43.127355 v 18.9484 h 4.5212 v 2.5146 h -12.8778 v -2.5146 h 4.4196 v -16.383 h -4.4196 v -2.5654 z"
         style="font-size:25.4px;font-family:Unispace;-inkscape-font-specification:'Unispace, Normal'"
         id="path2922" />
      <path
         d="m 507.99261,48.308955 q 1.6002,0 2.54,1.1684 0.9398,1.143 0.9398,3.6576 0,2.5146 -0.889,3.6068 -0.8636,1.0922 -2.5908,1.0922 h -5.8674 v 1.4478 q 0,0.9144 0.0762,1.4732 0.1016,0.5588 0.3302,0.8636 0.2286,0.2794 0.6096,0.381 0.4064,0.0762 0.9906,0.0762 h 5.9436 v 2.5146 h -7.7216 q -1.1176,0 -1.905,-0.2794 -0.7874,-0.2794 -1.2954,-0.889 -0.508,-0.635 -0.762,-1.651 -0.2286,-1.016 -0.2286,-2.5146 v -5.6388 q 0,-1.4732 0.2286,-2.4892 0.254,-1.016 0.762,-1.6256 0.508,-0.635 1.2954,-0.9144 0.7874,-0.2794 1.905,-0.2794 z m -5.8674,7.1882 h 4.2672 q 0.4064,0 0.6858,-0.0762 0.3048,-0.0762 0.4826,-0.3302 0.1778,-0.254 0.254,-0.7112 0.0762,-0.4826 0.0762,-1.27 0,-0.762 -0.0762,-1.1938 -0.0508,-0.4572 -0.2286,-0.6858 -0.1524,-0.2286 -0.4572,-0.2794 -0.2794,-0.0762 -0.7366,-0.0762 h -2.7178 q -0.4572,0 -0.762,0.127 -0.3048,0.127 -0.4826,0.4318 -0.1778,0.3048 -0.254,0.8382 -0.0508,0.508 -0.0508,1.2954 z"
         style="font-size:25.4px;font-family:Unispace;-inkscape-font-specification:'Unispace, Normal'"
         id="path2924" />
      <path
         d="m 526.73781,48.308955 v 2.5654 h -7.2898 q -0.4572,0 -0.762,0.127 -0.3048,0.127 -0.4826,0.4318 -0.1524,0.3048 -0.2286,0.8382 -0.0762,0.5334 -0.0762,1.3462 v 5.9182 q 0,1.9558 0.8382,2.3622 0.4064,0.2032 2.667,0.2032 0.4064,0 1.0414,0 0.6604,-0.0254 1.651,-0.0254 h 2.6416 v 2.5146 h -8.6106 q -1.1176,0 -1.9304,-0.2794 -0.7874,-0.2794 -1.2954,-0.889 -0.508,-0.635 -0.762,-1.651 -0.2286,-1.016 -0.2286,-2.5146 v -5.6388 q 0,-1.4732 0.2286,-2.4892 0.254,-1.016 0.762,-1.6256 0.508,-0.635 1.2954,-0.9144 0.8128,-0.2794 1.9304,-0.2794 z"
         style="font-size:25.4px;font-family:Unispace;-inkscape-font-specification:'Unispace, Normal'"
         id="path2926" />
      <path
         d="m 537.17721,44.067155 v 4.2418 h 5.1054 v 2.5654 h -5.1054 v 8.8646 q 0,0.8382 0.0508,1.3208 0.0762,0.4572 0.3556,0.6858 0.3048,0.2286 0.8636,0.2794 0.5842,0.0508 1.6256,0.0508 v 2.5146 h -2.6416 q -1.27,0 -2.0828,-0.1778 -0.8128,-0.2032 -1.2954,-0.6858 -0.4826,-0.4826 -0.6858,-1.3208 -0.1778,-0.8382 -0.1778,-2.1336 v -9.398 h -3.7846 v -2.5654 h 3.7846 v -4.2418 z"
         style="font-size:25.4px;font-family:Unispace;-inkscape-font-specification:'Unispace, Normal'"
         id="path2928" />
    </g>
  </g>
</svg>
