<?xml version="1.0" encoding="UTF-8" standalone="no"?>
<!-- Created with Inkscape (http://www.inkscape.org/) -->

<svg
   width="1500"
   height="900"
   viewBox="0 0 396.87498 238.125"
   version="1.1"
   id="svg5"
   inkscape:version="1.2.2 (732a01da63, 2022-12-09)"
   sodipodi:docname="tile.svg"
   xmlns:inkscape="http://www.inkscape.org/namespaces/inkscape"
   xmlns:sodipodi="http://sodipodi.sourceforge.net/DTD/sodipodi-0.dtd"
   xmlns="http://www.w3.org/2000/svg"
   xmlns:svg="http://www.w3.org/2000/svg">
  <sodipodi:namedview
     id="namedview7"
     pagecolor="#000000"
     bordercolor="#111111"
     borderopacity="1"
     inkscape:showpageshadow="0"
     inkscape:pageopacity="0"
     inkscape:pagecheckerboard="1"
     inkscape:deskcolor="#d1d1d1"
     inkscape:document-units="mm"
     showgrid="false"
     inkscape:zoom="1.2607271"
     inkscape:cx="90.027416"
     inkscape:cy="644.86598"
     inkscape:window-width="1920"
     inkscape:window-height="1009"
     inkscape:window-x="-8"
     inkscape:window-y="-8"
     inkscape:window-maximized="1"
     inkscape:current-layer="layer1" />
  <defs
     id="defs2" />
  <g
     inkscape:label="Layer 1"
     inkscape:groupmode="layer"
     id="layer1">
    <rect
       style="fill:#ffffff;stroke-width:1.16072;stroke-linecap:round;stroke-linejoin:round;paint-order:fill markers stroke"
       id="rect843"
       width="7.0613246"
       height="122.7888"
       x="8.2464104"
       y="7.591291" />
    <rect
       style="fill:#ffffff;stroke-width:0.964588;stroke-linecap:round;stroke-linejoin:round;paint-order:fill markers stroke"
       id="rect843-1"
       width="8.1886263"
       height="21.697262"
       x="-99.2211"
       y="71.098427"
       transform="matrix(0.48337907,-0.87541115,0.79067699,0.61223353,0,0)" />
    <path
       id="rect843-1-1"
       style="fill:#ffffff;stroke-width:0.958836;stroke-linecap:round;stroke-linejoin:round;paint-order:fill markers stroke"
       d="m 7.7835792,143.85507 -0.08222,-5.52813 12.8885138,10.03391 -0.07354,5.47619 z m -0.084,13.21839 -0.08222,-5.52813 12.8885138,10.03391 -0.07354,5.47619 z m 3e-6,0 -0.08222,-5.52813 12.8885138,10.03391 -0.07354,5.47619 z"
       sodipodi:nodetypes="ccccc" />
    <rect
       style="fill:#ffffff;stroke-width:0.943069;stroke-linecap:round;stroke-linejoin:round;paint-order:fill markers stroke"
       id="rect843-0"
       width="7.0613246"
       height="81.055862"
       x="22.279934"
       y="136.48763" />
    <path
       id="rect843-1-1-0"
       style="fill:#ffffff;stroke-width:0.958836;stroke-linecap:round;stroke-linejoin:round;paint-order:fill markers stroke"
       d="m 7.3262102,169.10409 -0.08222,-5.52813 12.8885138,10.03391 -0.07354,5.47619 z m -0.084,13.21839 -0.08222,-5.52813 12.8885138,10.03391 -0.07354,5.47619 z m 3e-6,0 -0.08222,-5.52813 12.8885138,10.03391 -0.07354,5.47619 z"
       sodipodi:nodetypes="ccccc" />
    <path
       id="rect843-1-1-5"
       style="fill:#ffffff;stroke-width:0.958836;stroke-linecap:round;stroke-linejoin:round;paint-order:fill markers stroke"
       d="m 6.9108382,194.2341 -0.08222,-5.52813 12.8885138,10.03391 -0.07354,5.47619 z m -0.084,13.21839 -0.08222,-5.52813 12.8885138,10.03391 -0.07354,5.47619 z m 3e-6,0 -0.08222,-5.52813 12.8885138,10.03391 -0.07354,5.47619 z"
       sodipodi:nodetypes="ccccc" />
    <path
       id="rect843-1-1-1"
       style="fill:#ffffff;stroke-width:0.958836;stroke-linecap:round;stroke-linejoin:round;paint-order:fill markers stroke"
       d="m 6.9108382,206.90295 -0.08222,-5.52813 12.8885138,10.03391 -0.07354,5.47619 z m -0.084,13.21839 -0.08222,-5.52813 12.8885138,10.03391 -0.07354,5.47619 z m 3e-6,0 -0.08222,-5.52813 12.8885138,10.03391 -0.07354,5.47619 z"
       sodipodi:nodetypes="ccccc" />
    <rect
       style="fill:#ffffff;stroke-width:0.964588;stroke-linecap:round;stroke-linejoin:round;paint-order:fill markers stroke"
       id="rect843-1-9"
       width="8.1886263"
       height="21.697262"
       x="-127.12329"
       y="-413.13052"
       transform="matrix(-0.48337907,0.87541115,-0.79067699,-0.61223353,0,0)" />
    <path
       id="rect843-1-1-4"
       style="fill:#ffffff;stroke-width:0.958836;stroke-linecap:round;stroke-linejoin:round;paint-order:fill markers stroke"
       d="m 388.57241,128.18022 0.0822,5.52813 -12.88851,-10.03391 0.0735,-5.47619 z m 0.084,-13.21839 0.0822,5.52813 -12.88851,-10.03391 0.0735,-5.47619 z m 0,0 0.0822,5.52813 -12.88851,-10.03391 0.0735,-5.47619 z"
       sodipodi:nodetypes="ccccc" />
    <rect
       style="fill:#ffffff;stroke-width:1.02047;stroke-linecap:round;stroke-linejoin:round;paint-order:fill markers stroke"
       id="rect843-0-6"
       width="7.0613246"
       height="94.906998"
       x="-374.07605"
       y="-135.54767"
       transform="scale(-1)" />
    <path
       id="rect843-1-1-0-3"
       style="fill:#ffffff;stroke-width:0.958836;stroke-linecap:round;stroke-linejoin:round;paint-order:fill markers stroke"
       d="m 389.02978,102.9312 0.0822,5.52813 -12.88851,-10.033912 0.0735,-5.47619 z m 0.084,-13.218392 0.0822,5.52813 -12.88851,-10.03391 0.0735,-5.47619 z m 0,0 0.0822,5.52813 -12.88852,-10.03391 0.0735,-5.47619 z"
       sodipodi:nodetypes="ccccc" />
    <path
       id="rect843-1-1-5-9"
       style="fill:#ffffff;stroke-width:0.958836;stroke-linecap:round;stroke-linejoin:round;paint-order:fill markers stroke"
       d="m 389.44515,77.801188 0.0822,5.52813 -12.88851,-10.03391 0.0735,-5.47619 z m 0.084,-13.21839 0.0822,5.52813 -12.88851,-10.0339 0.0735,-5.476194 z m 0,0 0.0822,5.52813 -12.88851,-10.0339 0.0735,-5.476194 z"
       sodipodi:nodetypes="ccccc" />
    <path
       id="rect843-1-1-1-3"
       style="fill:#ffffff;stroke-width:0.958836;stroke-linecap:round;stroke-linejoin:round;paint-order:fill markers stroke"
       d="m 389.44515,65.132338 0.0822,5.52813 -12.88851,-10.0339 0.0735,-5.476194 z m 0.084,-13.218384 0.0822,5.528134 -12.88851,-10.033914 0.0735,-5.47619 z m 0,0 0.0822,5.528134 -12.88851,-10.033914 0.0735,-5.47619 z"
       sodipodi:nodetypes="ccccc" />
    <rect
       style="fill:#ffffff;stroke-width:2.04341;stroke-linecap:round;stroke-linejoin:round;paint-order:fill markers stroke"
       id="rect843-9"
       width="7.0615354"
       height="380.54114"
       x="7.6142488"
       y="-389.4527"
       transform="matrix(-0.0081585,0.99996672,-0.99999964,-8.4944672e-4,0,0)" />
    <rect
       style="fill:#ffffff;stroke-width:1.78371;stroke-linecap:round;stroke-linejoin:round;paint-order:fill markers stroke"
       id="rect843-9-3"
       width="5.5564876"
       height="368.50189"
       x="224.64232"
       y="-390.375"
       transform="matrix(-0.01004032,0.99994959,-0.99999976,-6.9022624e-4,0,0)" />
    <rect
       style="fill:#ffffff;stroke-width:0.526482;stroke-linecap:round;stroke-linejoin:round;paint-order:fill markers stroke"
       id="rect843-97"
       width="3.9133396"
       height="45.583694"
       x="385.64282"
       y="8.6332331" />
    <rect
       style="fill:#ffffff;stroke-width:0.987082;stroke-linecap:round;stroke-linejoin:round;paint-order:fill markers stroke"
       id="rect843-97-0"
       width="7.0613246"
       height="88.799545"
       x="381.0564"
       y="141.67897" />
  </g>
</svg>
